<?xml version="1.0" standalone="no"?>
<!DOCTYPE svg PUBLIC "-//W3C//DTD SVG 20010904//EN"
 "http://www.w3.org/TR/2001/REC-SVG-20010904/DTD/svg10.dtd">
<svg version="1.0" xmlns="http://www.w3.org/2000/svg"
 width="1200.000000pt" height="1200.000000pt" viewBox="0 0 1200.000000 1200.000000"
 preserveAspectRatio="xMidYMid meet">

<g transform="translate(0.000000,1200.000000) scale(0.100000,-0.100000)"
fill="#008000" stroke="none">
<path d="M6150 9545 c-20 -10 -36 -11 -72 -3 -49 12 -115 1 -111 -18 1 -5 15
-40 30 -79 27 -67 28 -77 27 -240 -1 -268 -27 -385 -90 -401 -21 -5 -24 -12
-24 -55 0 -81 34 -145 95 -177 51 -26 95 -32 138 -17 35 12 43 11 92 -11 73
-34 136 -39 218 -20 103 24 159 21 196 -10 28 -23 32 -24 38 -8 3 9 1 41 -5
70 -9 46 -8 57 10 93 26 53 18 114 -22 170 -29 40 -120 101 -150 101 -9 0 -25
7 -37 15 l-21 15 21 40 c17 35 18 47 9 79 -14 44 -64 99 -111 118 -27 12 -32
18 -27 36 3 12 6 26 6 30 0 5 10 7 22 5 14 -2 39 -28 69 -72 26 -39 65 -83 86
-99 36 -27 126 -77 139 -77 3 0 3 18 -1 40 -5 32 -2 47 15 76 20 32 22 44 16
109 -6 63 -4 79 15 114 23 45 23 45 -34 108 l-29 31 -92 -5 c-84 -5 -95 -3
-139 21 -44 24 -50 25 -70 11 -31 -22 -99 -19 -130 5 -29 23 -43 24 -77 5z
m61 -21 c24 -22 101 -30 138 -14 26 10 36 9 74 -9 46 -22 130 -30 185 -17 30
7 32 6 32 -19 0 -14 -7 -40 -16 -57 -12 -24 -14 -36 -5 -55 16 -35 14 -68 -10
-124 -14 -32 -19 -59 -15 -79 6 -34 6 -35 -37 -16 -45 19 -66 45 -112 139 -45
93 -75 118 -122 102 -41 -15 -64 -68 -66 -159 -2 -84 13 -114 52 -101 16 5 21
15 21 41 0 30 3 34 25 34 58 0 94 -78 60 -127 -12 -17 -12 -27 -4 -52 21 -60
-15 -121 -72 -121 -30 0 -31 2 -26 30 10 49 -34 78 -67 44 -11 -11 -16 -35
-16 -81 0 -61 2 -67 34 -99 29 -29 41 -34 81 -34 87 0 142 57 133 135 -5 40 9
45 65 21 70 -29 94 -97 59 -164 -17 -33 -18 -41 -6 -57 13 -18 20 -85 9 -85
-3 0 -17 7 -30 16 -18 12 -39 14 -82 10 -206 -20 -224 -19 -303 8 -41 15 -79
27 -85 26 -5 0 -34 -3 -62 -6 -49 -5 -55 -4 -83 24 -22 23 -30 40 -30 66 0 23
5 36 13 36 21 0 55 42 72 89 21 60 48 351 40 431 -4 36 -18 99 -31 140 -25 79
-21 96 21 85 60 -15 91 -16 110 -1 26 20 34 20 56 0z m239 -693 c-18 -35 -62
-62 -94 -59 -48 5 -42 25 10 31 28 3 54 13 67 26 26 26 31 27 17 2z"/>
<path d="M6165 9503 c-14 -11 -35 -13 -74 -9 -51 5 -53 4 -47 -17 32 -110 37
-143 37 -236 0 -117 4 -117 56 -5 l25 56 24 -59 c13 -32 24 -59 24 -60 0 -1
-10 -4 -22 -6 -17 -3 -16 -4 4 -2 17 1 29 -5 35 -17 5 -11 8 15 9 70 1 143 49
209 135 183 43 -13 66 -41 98 -122 22 -56 91 -138 91 -108 0 8 9 32 19 53 24
46 27 67 17 128 -6 36 -4 52 8 70 9 12 16 25 16 28 0 3 -37 5 -83 5 -67 0 -89
4 -120 22 -36 22 -40 22 -69 7 -38 -20 -96 -14 -135 14 -26 18 -30 19 -48 5z"/>
<path d="M6148 9213 c6 -2 18 -2 25 0 6 3 1 5 -13 5 -14 0 -19 -2 -12 -5z"/>
<path d="M6138 9143 c12 -2 30 -2 40 0 9 3 -1 5 -23 4 -22 0 -30 -2 -17 -4z"/>
<path d="M6113 9123 c9 -2 23 -2 30 0 6 3 -1 5 -18 5 -16 0 -22 -2 -12 -5z"/>
<path d="M6095 9046 c-29 -44 18 -96 66 -73 27 14 38 60 18 83 -19 23 -66 17
-84 -10z"/>
<path d="M6096 8888 c-20 -28 -4 -58 29 -58 35 0 52 36 29 61 -22 25 -39 24
-58 -3z"/>
<path d="M6524 8815 c-4 -9 -2 -21 4 -27 15 -15 44 -1 40 19 -4 23 -36 29 -44
8z"/>
<path d="M6094 8755 c-4 -9 -2 -21 4 -27 15 -15 44 -1 40 19 -4 23 -36 29 -44
8z"/>
<path d="M6454 8715 c-4 -9 -2 -21 4 -27 15 -15 44 -1 40 19 -4 23 -36 29 -44
8z"/>
<path d="M5370 9485 c-30 -17 -64 -19 -91 -5 -16 9 -24 6 -44 -18 -17 -20 -38
-31 -66 -36 -23 -4 -45 -9 -50 -11 -4 -3 6 -36 22 -74 32 -77 56 -172 68 -269
7 -55 6 -62 -6 -46 -19 26 -69 160 -84 227 -13 55 -17 59 -66 87 -61 35 -72
36 -136 13 -38 -14 -54 -15 -77 -6 -27 10 -32 9 -50 -17 -14 -20 -32 -30 -63
-35 -43 -8 -97 -31 -97 -42 0 -3 42 -49 93 -102 155 -161 293 -355 377 -534
27 -57 52 -115 55 -129 5 -21 17 -29 64 -42 77 -22 81 -21 141 19 47 32 59 35
121 35 67 0 69 1 64 23 -46 210 -51 679 -9 884 6 30 3 34 -42 62 -52 34 -86
38 -124 16z m63 -30 c-1 -11 -7 -65 -13 -120 -22 -209 -11 -627 20 -734 8 -29
7 -31 -26 -37 -19 -3 -52 -4 -73 0 -29 4 -42 2 -52 -10 -7 -8 -33 -26 -58 -38
l-45 -23 -68 137 c-101 208 -232 392 -387 547 -68 66 -71 72 -52 82 11 6 29
11 41 11 27 0 61 18 78 42 11 14 21 17 52 12 26 -4 53 -1 80 10 22 9 46 16 53
16 7 0 22 -36 35 -83 25 -92 131 -316 186 -392 l36 -50 0 110 c0 134 -21 271
-56 362 -40 108 -40 101 0 109 20 3 45 17 55 30 16 21 24 23 63 18 32 -4 53
-2 74 10 37 20 60 16 57 -9z"/>
<path d="M5366 9433 c-23 -12 -37 -13 -62 -5 -29 9 -35 7 -48 -13 -9 -13 -28
-26 -44 -30 l-29 -6 23 -57 c24 -62 54 -193 54 -242 0 -55 17 -31 36 50 10 44
21 77 26 72 4 -4 19 -34 32 -67 18 -43 25 -53 26 -35 1 53 20 296 26 323 6 31
1 32 -40 10z"/>
<path d="M4930 9305 c-29 -16 -68 -19 -89 -6 -10 7 -22 1 -42 -20 -16 -18 -37
-29 -53 -29 -14 0 -26 -2 -26 -6 0 -3 33 -43 74 -89 41 -45 95 -111 121 -146
l46 -62 -7 84 -7 84 42 -39 c30 -29 38 -42 28 -49 -8 -6 -6 -7 6 -3 11 4 31
-3 48 -15 16 -11 29 -18 29 -15 0 3 -15 36 -34 73 -19 37 -47 110 -62 161 -16
50 -33 92 -39 92 -5 -1 -21 -7 -35 -15z"/>
<path d="M5328 9093 c7 -3 16 -2 19 1 4 3 -2 6 -13 5 -11 0 -14 -3 -6 -6z"/>
<path d="M4988 8993 c7 -3 16 -2 19 1 4 3 -2 6 -13 5 -11 0 -14 -3 -6 -6z"/>
<path d="M5302 8981 c-8 -5 -12 -21 -10 -37 4 -35 44 -47 65 -18 17 23 16 29
-3 48 -17 18 -32 20 -52 7z"/>
<path d="M5057 8902 c-24 -27 -21 -59 8 -78 33 -21 72 -6 81 31 13 52 -53 86
-89 47z"/>
<path d="M5300 8806 c-19 -23 -8 -61 18 -64 44 -7 67 32 36 62 -19 20 -38 20
-54 2z"/>
<path d="M5147 8763 c-12 -12 -7 -50 8 -63 17 -14 51 -5 59 16 13 35 -41 73
-67 47z"/>
<path d="M5324 8665 c-4 -9 -2 -21 4 -27 15 -15 44 -1 40 19 -4 23 -36 29 -44
8z"/>
<path d="M5213 8639 c-16 -16 -5 -39 17 -39 25 0 35 18 20 35 -15 18 -22 19
-37 4z"/>
<path d="M7194 9223 c-1 -120 -16 -179 -94 -366 -66 -159 -111 -217 -169 -217
-36 0 -46 -24 -45 -105 0 -98 84 -194 171 -199 30 -1 51 -11 77 -34 60 -52
144 -34 181 38 15 29 15 35 0 80 -22 67 -10 126 67 307 63 149 127 253 196
315 l42 38 -24 52 c-25 57 -41 71 -104 88 -28 7 -47 20 -59 40 -15 26 -21 29
-53 24 -27 -4 -48 0 -78 15 -23 12 -56 21 -74 21 l-33 0 -1 -97z m106 52 c41
-21 54 -23 77 -14 21 8 29 7 32 -2 7 -23 50 -59 68 -59 10 0 33 -9 51 -20 l33
-20 -63 -59 c-78 -73 -113 -131 -190 -313 -47 -112 -61 -158 -65 -211 -5 -56
-3 -71 12 -87 16 -18 17 -23 4 -46 -15 -29 -57 -54 -89 -54 -27 0 -75 25 -92
47 -8 12 -28 19 -54 19 -23 1 -51 7 -63 13 -31 17 -54 68 -47 106 5 27 12 34
38 39 57 11 100 71 172 241 78 185 96 250 96 363 0 95 2 96 80 57z"/>
<path d="M7248 9183 c-4 -62 -14 -114 -35 -175 -17 -49 -27 -88 -23 -88 4 0
31 25 59 55 29 30 55 55 58 55 3 0 2 -24 -1 -52 -3 -29 -3 -65 1 -80 8 -26 11
-22 51 56 25 49 66 109 100 145 32 34 56 64 53 66 -3 1 -24 8 -47 14 -26 7
-45 20 -54 36 -12 22 -18 24 -46 19 -24 -4 -43 0 -67 15 -19 12 -37 21 -39 21
-3 0 -7 -39 -10 -87z"/>
<path d="M7247 8949 c7 -7 15 -10 18 -7 3 3 -2 9 -12 12 -14 6 -15 5 -6 -5z"/>
<path d="M7230 8930 c8 -5 20 -10 25 -10 6 0 3 5 -5 10 -8 5 -19 10 -25 10 -5
0 -3 -5 5 -10z"/>
<path d="M7172 8824 c-32 -22 -30 -71 3 -86 60 -27 107 49 53 86 -12 9 -25 16
-28 16 -3 0 -16 -7 -28 -16z"/>
<path d="M7112 8668 c-32 -32 18 -87 53 -58 28 23 12 70 -25 70 -9 0 -21 -5
-28 -12z"/>
<path d="M7077 8554 c-12 -12 -8 -42 6 -47 21 -8 39 8 35 29 -3 19 -29 30 -41
18z"/>
<path d="M4175 9008 c-11 -6 -35 -24 -53 -39 -25 -23 -38 -27 -62 -22 -27 5
-31 2 -45 -30 -9 -23 -30 -44 -60 -61 -47 -28 -88 -77 -69 -83 35 -12 169
-110 204 -151 74 -83 212 -292 227 -343 13 -44 13 -52 -3 -85 l-18 -37 43 -39
c24 -21 62 -43 85 -49 83 -22 180 8 217 67 12 20 29 34 40 34 28 0 75 26 93
52 20 29 20 78 0 121 -13 28 -25 36 -65 46 -71 19 -125 73 -232 234 -101 152
-131 215 -150 314 -11 60 -13 64 -47 73 -45 13 -80 12 -105 -2z m76 -175 c35
-106 221 -383 287 -428 23 -16 51 -25 74 -25 34 0 38 -3 49 -38 21 -72 -33
-142 -110 -142 -11 0 -22 -9 -26 -20 -3 -10 -20 -31 -38 -46 -26 -22 -38 -25
-71 -21 -48 7 -97 50 -78 69 15 15 15 64 1 109 -16 49 -174 282 -237 350 -48
52 -149 130 -184 141 -20 7 4 31 57 58 33 17 47 31 53 54 8 27 12 31 39 28 21
-2 40 5 61 23 16 14 43 32 59 40 l28 15 8 -53 c4 -28 17 -80 28 -114z"/>
<path d="M4152 8930 c-22 -21 -43 -30 -65 -30 -27 0 -35 -5 -44 -29 -7 -19
-26 -37 -53 -51 l-43 -22 44 -25 c56 -31 129 -101 185 -178 24 -32 44 -55 44
-50 0 11 -27 130 -36 158 -4 13 14 5 62 -28 37 -25 71 -45 75 -45 5 0 -10 29
-32 64 -44 70 -76 154 -86 221 -3 25 -8 45 -12 45 -3 0 -21 -14 -39 -30z"/>
<path d="M4259 8623 c-13 -16 -12 -17 4 -4 9 7 17 15 17 17 0 8 -8 3 -21 -13z"/>
<path d="M4296 8518 c-21 -29 -20 -41 3 -62 29 -26 73 -17 85 17 13 37 -2 61
-42 65 -22 2 -34 -3 -46 -20z"/>
<path d="M4402 8394 c-27 -19 -28 -36 -3 -58 25 -23 61 -6 61 29 0 33 -30 49
-58 29z"/>
<path d="M4467 8277 c-8 -21 8 -39 29 -35 27 5 25 42 -2 46 -12 2 -24 -3 -27
-11z"/>
<path d="M8020 8907 c0 -35 -42 -147 -77 -204 -49 -80 -246 -307 -290 -334
-26 -16 -44 -20 -74 -16 -39 5 -42 4 -69 -40 -57 -89 -48 -178 25 -250 26 -26
52 -43 66 -43 18 0 29 -10 42 -40 23 -50 66 -74 130 -72 46 1 47 0 47 -29 0
-67 55 -139 106 -139 17 0 25 -9 34 -35 18 -54 82 -80 133 -54 59 31 67 47 67
139 0 61 6 104 20 146 12 32 21 78 22 102 l2 42 45 0 c102 0 172 45 220 142
54 108 39 238 -40 357 -22 34 -66 80 -97 104 -83 63 -102 84 -102 110 0 26
-16 37 -53 37 -12 0 -39 18 -62 39 -44 44 -95 64 -95 38z m85 -57 c27 -26 52
-42 71 -43 23 -2 30 -9 38 -36 6 -22 26 -45 60 -71 70 -51 143 -132 166 -183
41 -89 21 -184 -55 -259 -46 -46 -93 -62 -159 -55 l-51 5 3 -61 c3 -55 -1 -71
-37 -145 -43 -89 -50 -134 -26 -169 14 -20 13 -23 -16 -47 -17 -14 -38 -26
-47 -26 -29 0 -78 37 -91 68 -8 19 -22 33 -39 37 -40 10 -72 44 -72 78 0 21
12 40 46 73 102 100 122 228 46 297 -20 19 -21 18 -66 -43 -48 -65 -62 -109
-52 -164 5 -28 3 -36 -18 -50 -14 -9 -44 -16 -67 -16 -33 0 -47 6 -69 31 -16
16 -32 39 -35 49 -3 10 -21 24 -39 30 -67 22 -98 82 -73 142 14 33 18 35 58
34 63 -1 115 39 240 184 142 165 175 221 215 368 6 22 27 13 69 -28z m-165
-734 c-17 -33 -42 -69 -56 -79 l-24 -18 0 34 c0 25 14 54 53 108 49 70 52 73
55 45 2 -18 -8 -52 -28 -90z"/>
<path d="M8047 8825 c-9 -53 -63 -156 -118 -224 -27 -34 -46 -61 -41 -61 4 0
36 16 71 35 36 19 66 33 68 31 2 -2 -10 -32 -27 -67 -42 -89 -40 -118 11 -164
77 -69 128 -78 261 -46 l78 18 -22 -39 c-34 -60 -44 -65 -76 -37 l-27 24 23
-27 c23 -25 23 -27 5 -37 -17 -10 -17 -10 2 -10 35 -1 99 35 132 72 99 113 50
264 -125 384 -33 23 -55 46 -59 62 -8 37 -21 50 -43 44 -12 -3 -33 9 -63 36
l-44 41 -6 -35z m203 -241 c82 -69 80 -165 -5 -223 -71 -48 -170 -31 -230 41
-24 29 -25 31 -9 58 10 15 43 55 75 89 52 55 63 61 98 61 28 0 49 -8 71 -26z"/>
<path d="M8150 8575 c-14 -7 -49 -41 -79 -75 l-53 -61 23 -26 c64 -67 149 -72
216 -10 48 43 32 130 -31 168 -36 22 -43 23 -76 4z m74 -131 c21 -21 20 -30
-6 -48 -26 -18 -84 -21 -94 -5 -8 14 45 69 67 69 10 0 25 -7 33 -16z"/>
<path d="M7950 8556 c0 -2 8 -10 18 -17 15 -13 16 -12 3 4 -13 16 -21 21 -21
13z"/>
<path d="M7945 8530 c10 -11 20 -20 23 -20 3 0 -3 9 -13 20 -10 11 -20 20 -23
20 -3 0 3 -9 13 -20z"/>
<path d="M7880 8526 c0 -2 8 -10 18 -17 15 -13 16 -12 3 4 -13 16 -21 21 -21
13z"/>
<path d="M7945 8500 c10 -11 20 -20 23 -20 3 0 -3 9 -13 20 -10 11 -20 20 -23
20 -3 0 3 -9 13 -20z"/>
<path d="M7828 8449 c-27 -16 -23 -65 7 -85 23 -15 27 -15 50 0 61 40 6 122
-57 85z"/>
<path d="M7730 8315 c-26 -32 13 -81 48 -59 34 22 22 74 -18 74 -10 0 -23 -7
-30 -15z"/>
<path d="M8255 8290 c10 -11 20 -20 23 -20 3 0 -3 9 -13 20 -10 11 -20 20 -23
20 -3 0 3 -9 13 -20z"/>
<path d="M8200 8275 c13 -14 26 -25 28 -25 3 0 -5 11 -18 25 -13 14 -26 25
-28 25 -3 0 5 -11 18 -25z"/>
<path d="M8195 8250 c10 -11 20 -20 23 -20 3 0 -3 9 -13 20 -10 11 -20 20 -23
20 -3 0 3 -9 13 -20z"/>
<path d="M8056 8244 c-31 -30 -8 -69 36 -62 26 3 37 41 18 64 -16 18 -35 18
-54 -2z"/>
<path d="M7667 8223 c-11 -10 -8 -41 4 -49 16 -9 43 21 36 40 -7 16 -28 21
-40 9z"/>
<path d="M8011 8062 c-7 -14 -6 -25 5 -40 19 -27 36 -28 58 -3 14 15 15 24 6
40 -14 26 -56 28 -69 3z"/>
<path d="M7987 7943 c-12 -12 -7 -41 7 -46 19 -7 40 18 32 38 -6 15 -28 20
-39 8z"/>
<path d="M3488 8465 c-15 -8 -37 -33 -49 -55 -16 -28 -32 -43 -53 -48 -26 -7
-32 -14 -34 -42 -2 -22 -16 -48 -39 -74 -33 -36 -35 -41 -19 -50 95 -58 154
-103 226 -173 47 -45 80 -83 74 -83 -17 0 -128 71 -199 127 l-65 53 -62 -9
c-64 -8 -79 -19 -130 -94 -10 -14 -28 -27 -40 -29 -18 -2 -24 -12 -29 -40 -3
-23 -20 -53 -42 -77 -21 -23 -37 -52 -37 -65 0 -21 5 -24 63 -30 240 -27 610
-158 784 -277 l44 -31 64 23 c60 21 65 25 84 70 12 26 21 55 21 63 0 8 25 31
55 51 30 21 57 40 60 44 2 5 -34 48 -82 97 -168 175 -352 423 -434 585 l-39
79 -48 0 c-26 -1 -59 -7 -74 -15z m60 -97 c99 -179 274 -420 405 -555 100
-103 100 -103 22 -148 -33 -20 -43 -33 -52 -68 -7 -24 -20 -54 -31 -67 l-19
-23 -70 42 c-181 108 -479 211 -698 243 -97 14 -104 23 -54 74 20 21 32 44 33
64 1 26 8 35 33 45 18 8 43 32 58 55 14 22 32 43 39 46 8 3 42 -17 75 -44 34
-27 103 -72 154 -101 96 -53 262 -124 278 -119 13 5 -98 146 -180 229 -42 42
-111 99 -153 126 l-78 50 30 28 c21 20 30 38 30 60 0 28 5 33 33 41 23 7 39
22 55 52 13 23 30 42 37 42 7 0 31 -33 53 -72z"/>
<path d="M3469 8373 c-13 -21 -35 -40 -49 -43 -19 -5 -26 -14 -31 -42 -3 -21
-12 -44 -19 -53 -7 -8 -11 -17 -9 -18 2 -2 31 -20 64 -41 33 -22 93 -72 132
-112 l72 -73 -24 64 c-13 35 -29 73 -35 84 -14 28 -5 26 58 -9 33 -20 50 -35
46 -43 -5 -9 -4 -9 5 -1 10 9 -2 32 -48 102 -33 49 -77 120 -96 156 -20 36
-38 66 -39 66 -2 0 -14 -17 -27 -37z"/>
<path d="M3649 8053 c-13 -16 -12 -17 4 -4 9 7 17 15 17 17 0 8 -8 3 -21 -13z"/>
<path d="M3195 8009 c-15 -23 -39 -45 -56 -51 -23 -8 -29 -16 -29 -38 0 -16
-11 -42 -25 -59 l-26 -30 38 -7 c89 -15 173 -34 250 -57 l81 -24 -50 59 c-28
32 -49 60 -47 62 2 2 31 0 64 -6 33 -5 75 -6 92 -3 32 6 32 6 -44 45 -41 22
-109 64 -149 95 l-74 55 -25 -41z"/>
<path d="M3696 7981 c-23 -25 -6 -61 29 -61 35 0 52 36 29 61 -9 10 -22 19
-29 19 -7 0 -20 -9 -29 -19z"/>
<path d="M3802 7848 c-7 -7 -12 -22 -12 -35 0 -27 42 -42 65 -23 28 23 11 70
-25 70 -9 0 -21 -5 -28 -12z"/>
<path d="M3409 7813 c-13 -16 -12 -17 4 -4 9 7 17 15 17 17 0 8 -8 3 -21 -13z"/>
<path d="M3429 7803 c-13 -16 -12 -17 4 -4 9 7 17 15 17 17 0 8 -8 3 -21 -13z"/>
<path d="M3459 7803 c-13 -16 -12 -17 4 -4 9 7 17 15 17 17 0 8 -8 3 -21 -13z"/>
<path d="M3550 7790 c-11 -11 -20 -27 -20 -35 0 -21 36 -55 58 -55 24 0 52 31
52 57 0 23 -30 53 -53 53 -9 0 -26 -9 -37 -20z"/>
<path d="M3897 7753 c-4 -3 -7 -15 -7 -25 0 -23 38 -25 47 -2 8 21 -24 43 -40
27z"/>
<path d="M3701 7716 c-7 -8 -10 -24 -6 -35 14 -45 79 -30 73 17 -2 21 -9 28
-29 30 -14 2 -31 -4 -38 -12z"/>
<path d="M3815 7650 c-10 -17 20 -44 40 -36 9 3 15 14 13 23 -4 21 -43 30 -53
13z"/>
<path d="M5562 8035 c6 -26 -6 -43 -17 -25 -11 17 -22 11 -28 -16 -3 -19 2
-29 19 -41 30 -19 31 -33 3 -33 -15 0 -19 -4 -15 -16 3 -9 6 -18 6 -20 0 -3
12 -9 26 -14 20 -8 24 -13 16 -23 -8 -10 -5 -20 11 -39 l23 -26 23 24 c19 20
21 27 11 39 -10 12 -8 16 14 25 32 12 37 50 7 50 -29 0 -35 17 -11 32 11 7 20
23 20 35 0 24 -15 39 -25 23 -12 -20 -25 -10 -25 20 0 27 -3 30 -31 30 -28 0
-31 -3 -27 -25z"/>
<path d="M6450 7900 c0 -22 -16 -27 -23 -7 -3 9 -9 9 -23 1 -30 -18 -29 -43 2
-54 24 -10 25 -12 10 -23 -11 -8 -15 -19 -10 -30 7 -20 17 -21 45 -7 25 14 44
3 29 -15 -7 -8 -9 -19 -5 -25 8 -13 55 -13 55 0 0 6 5 10 10 10 6 0 10 -7 10
-15 0 -17 18 -19 39 -6 30 19 68 -14 90 -81 27 -79 26 -111 -2 -144 l-23 -26
-62 25 c-64 25 -201 103 -215 122 -4 5 -12 17 -16 25 -8 12 -12 12 -25 1 -14
-12 -16 -10 -16 14 0 15 -8 34 -17 41 -25 19 -33 17 -33 -6 0 -29 -14 -25 -26
8 -7 19 -18 28 -37 30 -24 2 -27 -1 -21 -23 7 -28 2 -30 -26 -13 -23 14 -26
12 -35 -25 -6 -24 -4 -27 18 -27 30 0 45 -17 23 -26 -22 -8 -20 -21 5 -34 16
-9 24 -8 38 4 27 24 42 20 35 -9 -5 -22 -3 -25 19 -25 14 0 31 8 36 18 9 15
12 15 21 2 8 -12 13 -13 30 -2 11 6 27 12 35 12 9 0 70 -34 135 -76 l120 -75
0 -100 c0 -54 -4 -99 -9 -99 -11 0 -35 29 -37 44 0 6 -2 19 -2 29 -2 14 -7 17
-23 12 -19 -6 -20 -4 -14 24 4 20 2 37 -5 46 -10 12 -15 11 -31 -8 l-18 -22
-1 34 c0 20 -7 39 -17 47 -25 19 -33 17 -33 -6 0 -23 -4 -24 -29 -8 -15 9 -22
8 -36 -6 -19 -19 -13 -46 10 -46 20 0 19 -17 -2 -29 -14 -8 -15 -12 -4 -25 10
-12 23 -15 47 -10 34 6 43 -3 23 -23 -6 -6 -8 -16 -5 -22 9 -14 43 -14 51 -1
10 15 25 12 25 -6 0 -10 8 -15 23 -14 37 3 46 1 67 -20 17 -17 20 -33 20 -102
0 -46 7 -128 15 -183 26 -178 21 -203 -55 -300 -19 -24 -38 -44 -42 -45 -13 0
-18 36 -9 68 8 25 7 32 -5 32 -18 0 -18 14 1 30 10 8 13 21 9 34 -9 29 -11 31
-29 16 -23 -19 -29 -5 -9 25 17 25 16 27 -4 48 -22 21 -22 21 -37 2 -14 -20
-15 -20 -21 3 -7 24 -8 25 -41 16 -26 -7 -30 -26 -8 -44 21 -18 19 -32 -5 -25
-16 5 -20 2 -20 -19 0 -19 6 -25 27 -28 31 -3 47 -38 18 -38 -12 0 -15 -5 -11
-16 3 -9 6 -18 6 -20 0 -2 14 -4 30 -4 24 0 30 -4 28 -17 -2 -12 5 -19 20 -21
12 -2 30 -14 39 -28 15 -24 14 -26 -64 -112 -44 -48 -107 -124 -141 -168 -66
-88 -126 -144 -154 -144 -30 0 -20 28 18 54 21 14 31 27 25 31 -20 12 -11 25
18 25 17 0 31 6 35 16 8 22 9 21 -16 28 -25 6 -16 22 17 28 13 2 21 12 23 31
3 22 -1 27 -18 27 -16 0 -19 5 -15 23 4 15 0 26 -15 35 -26 16 -40 8 -40 -24
0 -26 -9 -31 -27 -13 -6 6 -16 8 -22 5 -16 -10 -14 -41 4 -56 19 -16 9 -33
-16 -27 -30 8 -36 -32 -9 -53 22 -17 22 -18 4 -28 -18 -10 -18 -11 -1 -30 20
-22 14 -70 -9 -79 -55 -21 -254 179 -254 255 0 10 15 36 33 58 39 46 137 204
137 221 0 7 14 28 31 48 48 55 89 49 179 -25 84 -70 95 -62 18 13 -70 67 -76
76 -61 88 9 8 23 14 32 15 45 3 51 5 51 19 0 18 12 19 28 3 9 -9 18 -8 39 1
26 12 26 14 10 25 -26 20 -20 28 14 21 23 -5 34 -3 44 12 19 25 18 30 -6 36
-23 6 -17 27 7 27 8 0 14 7 14 15 0 8 -4 15 -10 15 -5 0 -10 7 -10 15 0 22
-31 18 -37 -5 -7 -25 -33 -26 -33 -1 0 14 -5 18 -20 14 -15 -4 -20 -14 -20
-39 0 -38 -14 -52 -28 -27 -16 28 -45 -2 -37 -39 5 -21 3 -28 -9 -28 -11 0
-16 -9 -16 -28 0 -16 -9 -37 -20 -47 -17 -15 -24 -16 -45 -7 -28 13 -27 22 16
92 15 25 34 63 43 85 18 48 48 176 42 182 -2 2 -14 -26 -26 -63 -18 -54 -24
-63 -32 -50 -7 12 -5 27 6 49 13 28 13 32 1 35 -21 5 -19 19 5 32 13 7 19 19
18 36 -2 21 -6 24 -25 19 -26 -6 -30 7 -8 25 19 16 19 30 -1 55 -14 19 -16 19
-25 2 -12 -21 -29 -13 -29 13 0 15 -6 19 -26 18 -30 -3 -42 -24 -25 -41 17
-17 13 -27 -9 -27 -30 0 -28 -47 2 -52 26 -3 38 -38 14 -38 -20 0 -21 -36 -1
-44 8 -3 22 -3 31 1 13 5 15 2 9 -15 -5 -17 -1 -24 18 -31 56 -22 50 -81 -18
-172 -30 -41 -75 -104 -101 -141 -26 -38 -49 -68 -52 -68 -6 0 4 58 13 83 6
13 3 16 -9 11 -23 -9 -20 13 4 28 11 7 20 23 20 36 0 21 -4 23 -25 18 -28 -7
-33 5 -10 24 19 16 19 30 -1 55 -14 19 -16 19 -25 2 -12 -21 -29 -13 -29 15 0
17 -4 19 -27 13 -37 -9 -39 -12 -25 -35 17 -28 15 -39 -8 -33 -16 4 -20 0 -20
-20 0 -19 6 -26 22 -29 26 -3 38 -38 14 -38 -23 0 -20 -37 4 -45 11 -3 25 -3
31 1 9 5 10 0 6 -15 -4 -17 0 -24 19 -31 38 -15 45 -48 22 -95 -25 -49 -54
-82 -90 -101 -39 -20 -61 -17 -87 10 -21 22 -22 30 -16 103 6 72 39 302 50
348 3 11 -4 1 -15 -22 -18 -40 -36 -61 -24 -28 5 11 -1 15 -20 15 -26 0 -35
13 -16 25 16 10 12 19 -16 32 -32 15 -48 8 -41 -18 6 -23 -12 -37 -23 -18 -7
10 -11 10 -24 0 -20 -17 -20 -30 0 -52 21 -23 10 -43 -16 -29 -14 8 -20 6 -24
-8 -3 -9 -4 28 -1 82 5 127 16 145 105 163 35 7 75 21 90 31 33 20 102 100
138 156 14 23 45 65 70 94 83 97 28 53 -103 -82 -110 -114 -136 -136 -168
-142 -22 -4 -43 -2 -48 3 -14 14 30 62 61 67 17 2 24 9 22 21 -3 14 2 16 26
10 37 -8 67 21 39 36 -28 16 -19 29 18 29 19 0 35 4 35 9 0 5 3 16 6 25 4 12
0 16 -15 16 -12 0 -21 6 -21 15 0 8 5 15 10 15 15 0 12 19 -4 36 -22 21 -35
17 -47 -13 l-11 -28 -12 23 c-11 20 -14 21 -31 8 -16 -11 -17 -18 -9 -37 15
-34 7 -52 -17 -38 -11 5 -24 7 -29 4 -13 -8 -13 -42 0 -50 16 -10 12 -25 -6
-25 -12 0 -14 -5 -9 -17 15 -36 -1 -83 -28 -83 -15 0 -2 134 20 205 21 68 16
64 193 140 105 45 127 63 28 24 -101 -40 -97 -39 -92 -25 3 8 21 17 40 21 30
5 34 9 29 27 -6 18 -4 19 24 13 21 -5 35 -2 46 9 20 19 19 23 -6 29 -13 3 -18
10 -14 17 4 7 18 9 31 6 17 -5 26 -1 34 13 15 29 12 41 -10 41 -23 0 -27 15
-5 24 20 7 19 26 -2 42 -27 20 -40 17 -47 -11 -7 -27 -26 -34 -26 -10 0 8 -6
15 -14 15 -7 0 -19 -7 -26 -15 -10 -12 -10 -18 0 -30 17 -21 5 -51 -15 -35 -8
6 -19 9 -25 5 -13 -8 -13 -55 0 -55 6 0 10 -4 10 -10 0 -5 -7 -10 -16 -10 -12
0 -14 -7 -9 -30 10 -44 -14 -75 -66 -88 -61 -15 -81 6 -120 128 -24 75 -23 34
2 -70 23 -98 21 -125 -22 -274 -32 -114 -45 -132 -85 -122 -33 9 -143 113
-226 214 -57 69 -91 95 -68 52 8 -15 8 -20 -2 -21 -7 -1 -4 -4 8 -7 12 -4 56
-54 99 -111 53 -70 97 -117 137 -145 l59 -41 -6 -55 c-7 -66 -20 -84 -35 -46
-5 15 -10 32 -10 37 0 5 -8 9 -17 7 -14 -2 -17 3 -15 25 2 16 -3 35 -9 44 -11
13 -15 12 -31 -9 l-18 -23 0 36 c0 29 -4 38 -22 43 -35 9 -41 7 -35 -9 4 -8 2
-17 -4 -20 -5 -4 -12 1 -15 9 -8 22 -23 20 -45 -6 -24 -27 -24 -27 6 -38 27
-10 34 -30 10 -30 -19 0 -19 -14 0 -30 9 -7 26 -9 45 -5 29 6 42 -6 20 -20
-17 -11 -11 -24 15 -31 14 -4 32 -1 40 6 12 10 16 9 21 -4 5 -12 14 -15 33
-12 14 3 31 3 37 -2 6 -4 14 -52 17 -107 7 -123 17 -153 116 -330 97 -173 98
-176 69 -209 -26 -30 -77 -42 -131 -32 -42 8 -51 33 -31 82 13 30 12 34 -1 34
-20 0 -19 12 4 32 13 11 18 24 14 37 -6 23 -18 27 -28 11 -4 -6 -11 -8 -16 -4
-6 4 -4 13 7 25 19 21 12 69 -11 69 -8 0 -15 -5 -15 -11 0 -6 -6 -9 -12 -7 -7
3 -13 13 -13 24 0 14 -6 18 -25 16 -37 -4 -44 -17 -24 -48 l18 -27 -27 7 c-26
6 -28 5 -25 -21 2 -19 10 -29 27 -33 32 -7 38 -26 12 -35 -30 -9 -9 -45 25
-45 20 0 24 -4 19 -19 -4 -14 0 -20 19 -25 22 -5 42 -33 32 -43 -9 -9 -163 48
-207 76 -46 29 -169 152 -169 169 0 21 36 39 84 41 12 1 16 6 12 16 -5 13 0
15 27 10 24 -5 37 -2 46 9 11 13 11 17 -3 22 -28 11 -18 27 14 21 23 -5 32 -2
40 13 14 26 12 40 -5 40 -8 0 -15 4 -15 9 0 5 7 11 15 15 19 7 19 23 1 42 -21
20 -43 17 -49 -6 -6 -23 -27 -27 -27 -5 0 8 -6 15 -13 15 -23 0 -36 -22 -30
-51 6 -30 -5 -37 -25 -17 -20 20 -47 -14 -33 -40 15 -27 14 -32 -5 -32 -12 0
-15 -6 -10 -23 6 -27 -20 -71 -36 -61 -15 10 -2 205 17 251 8 20 33 55 54 78
61 66 72 98 14 43 -27 -27 -52 -48 -56 -48 -13 0 -7 51 9 75 13 20 14 28 4 40
-10 12 -8 17 13 26 16 7 25 19 25 35 0 20 -4 23 -24 18 -30 -8 -31 9 -3 27 16
11 19 20 14 42 -7 28 -19 35 -30 17 -11 -18 -26 -10 -23 13 2 18 -2 23 -29 25
-35 3 -40 -6 -23 -38 11 -20 -3 -39 -15 -20 -10 16 -22 12 -28 -9 -5 -22 2
-35 26 -44 24 -9 22 -37 -3 -37 -11 0 -20 -6 -20 -13 0 -19 21 -37 42 -37 21
0 24 -16 6 -24 -9 -3 -4 -12 15 -26 28 -23 39 -74 13 -64 -7 3 -49 54 -92 114
-43 60 -79 108 -81 106 -2 -2 31 -61 73 -131 l77 -128 -13 -81 c-13 -82 -31
-140 -46 -148 -11 -6 -38 6 -159 70 -78 41 -90 51 -93 76 -2 19 4 36 19 52 18
19 20 26 9 39 -10 12 -8 16 14 25 33 12 39 61 6 53 -11 -3 -20 0 -20 5 0 6 9
16 20 22 19 10 27 49 14 63 -4 3 -15 2 -25 -3 -15 -8 -18 -6 -21 17 -2 22 -8
28 -28 28 -22 0 -25 -4 -22 -32 2 -32 -10 -44 -23 -23 -12 20 -25 10 -25 -19
0 -21 6 -32 20 -36 11 -3 20 -13 20 -21 0 -8 -9 -14 -20 -14 -31 0 -26 -38 6
-50 22 -9 24 -13 14 -25 -10 -12 -8 -18 10 -33 14 -12 21 -26 18 -42 l-3 -24
-38 34 c-65 57 -189 209 -185 227 2 9 20 26 40 37 27 14 35 23 28 31 -14 17
-2 25 30 19 32 -7 52 23 25 38 -24 14 -17 28 14 28 21 0 30 6 35 23 9 35 7 40
-14 34 -13 -3 -20 0 -20 9 0 8 5 14 10 14 16 0 12 22 -7 36 -26 19 -43 17 -43
-5 0 -27 -21 -38 -32 -17 -8 14 -13 15 -24 5 -17 -14 -18 -41 -3 -56 17 -17 1
-35 -21 -23 -27 14 -38 -24 -15 -50 15 -17 15 -19 -2 -29 -15 -8 -16 -13 -5
-31 10 -16 10 -25 1 -42 l-12 -22 -21 25 c-11 14 -36 44 -55 67 -64 80 -43 33
43 -93 103 -150 107 -173 48 -227 -21 -19 -80 -56 -130 -81 -77 -39 -96 -45
-118 -37 -33 13 -34 13 -34 -5 0 -19 -17 -19 -36 -1 -7 8 -23 12 -34 9 -23 -6
-25 -14 -8 -31 18 -18 1 -27 -26 -13 -19 11 -27 10 -45 0 -25 -16 -27 -27 -6
-35 19 -8 20 -24 1 -24 -20 0 -26 -12 -19 -38 6 -26 29 -28 55 -5 17 15 18 15
18 -12 0 -21 4 -26 16 -21 9 3 20 6 25 6 5 0 9 14 9 30 0 32 23 42 34 15 5
-13 10 -14 27 -5 16 9 19 18 15 36 -5 19 -2 24 13 24 12 0 20 9 24 28 5 23 15
32 54 47 26 10 79 33 118 52 84 40 126 42 167 8 16 -14 52 -35 80 -47 37 -16
46 -23 35 -30 -9 -5 -26 -2 -43 7 -36 19 -44 19 -44 0 0 -21 -17 -19 -30 5 -6
12 -21 20 -36 20 -21 0 -24 -3 -18 -25 7 -29 -2 -32 -28 -8 -16 14 -22 14 -43
3 -24 -13 -24 -15 -8 -32 9 -10 12 -19 7 -19 -5 -1 -16 -2 -24 -3 -11 -1 -14
-10 -12 -31 4 -38 9 -42 32 -27 29 18 42 15 35 -8 -5 -16 -2 -20 18 -20 18 0
27 7 31 25 7 27 36 35 36 10 0 -8 9 -15 20 -15 15 0 22 9 27 30 4 24 10 29 24
25 15 -5 19 -1 19 15 0 14 10 25 33 35 29 12 36 11 80 -12 26 -15 65 -42 88
-61 70 -60 48 -85 -135 -154 -127 -47 -109 -48 61 -3 95 25 144 34 168 29 56
-10 36 -45 -22 -38 -28 3 -33 0 -33 -17 0 -20 -1 -21 -25 -5 -20 13 -30 14
-46 6 -19 -11 -19 -13 -5 -29 22 -24 11 -31 -24 -18 -26 10 -32 8 -44 -8 -13
-18 -13 -22 7 -37 l22 -18 -22 -6 c-23 -6 -33 -34 -13 -34 6 0 10 -7 10 -15 0
-22 19 -18 41 8 l19 22 6 -23 c4 -15 12 -21 21 -18 8 3 17 6 19 6 2 0 4 13 4
29 0 36 13 46 30 26 19 -23 43 1 36 37 -5 24 -2 28 15 28 17 0 20 5 16 21 -5
19 22 59 41 59 4 0 55 -35 113 -78 122 -91 158 -109 332 -169 157 -53 197 -73
231 -113 28 -34 32 -51 16 -81 -15 -27 -62 -25 -113 5 -83 48 -244 114 -322
132 -102 23 -387 26 -519 5 l-89 -15 -56 61 c-31 33 -77 76 -103 97 -51 40
-66 69 -47 92 10 12 9 17 -5 27 -16 12 -16 14 -2 26 18 15 20 29 7 50 -8 12
-12 13 -25 1 -23 -18 -32 -4 -19 30 9 24 8 32 -8 46 -17 15 -19 15 -25 0 -9
-24 -23 -20 -30 9 -8 30 -18 31 -47 4 -21 -19 -21 -21 -4 -30 21 -12 13 -29
-15 -29 -14 0 -18 -5 -14 -16 3 -9 6 -20 6 -25 0 -5 13 -9 29 -9 36 0 51 -19
22 -27 -39 -10 -14 -43 32 -43 21 0 28 -4 24 -14 -4 -9 6 -20 29 -31 38 -18
46 -30 12 -19 -13 3 5 -14 39 -39 60 -45 104 -99 117 -143 12 -40 -52 -103
-177 -176 -45 -27 -79 -48 -75 -48 15 0 122 54 198 99 93 57 118 66 150 56 28
-9 11 -31 -31 -40 -24 -6 -29 -10 -23 -27 5 -18 3 -20 -21 -14 -20 5 -31 2
-41 -11 -18 -24 -17 -33 1 -33 8 0 15 -4 15 -10 0 -5 -13 -10 -29 -10 -21 0
-30 -6 -35 -22 -9 -35 -8 -38 14 -38 22 0 27 -16 8 -23 -19 -7 4 -41 31 -45
15 -3 21 2 21 17 0 26 16 36 28 16 11 -20 42 -9 42 14 0 9 -5 22 -12 29 -18
18 6 40 25 24 8 -7 17 -9 20 -5 11 10 8 53 -3 53 -5 0 -10 7 -10 15 0 8 7 15
15 15 13 0 14 4 5 21 -9 15 -9 28 0 49 10 24 21 29 86 44 97 21 137 20 157 -2
10 -10 17 -23 17 -29 0 -13 -48 -55 -114 -101 -27 -18 -46 -36 -43 -38 3 -3
48 23 100 59 113 77 151 92 222 83 69 -8 214 -50 283 -83 76 -36 184 -140 212
-206 29 -65 33 -169 7 -194 -21 -21 -36 -9 -76 63 -30 52 -71 84 -107 84 -10
0 -36 9 -59 20 -33 16 -44 29 -53 58 -6 20 -21 55 -32 77 -12 22 -18 31 -15
20 4 -11 9 -40 12 -65 4 -35 1 -49 -12 -60 -14 -12 -18 -12 -26 1 -9 14 -8 28
6 62 5 12 2 17 -9 17 -9 0 -16 5 -16 10 0 6 4 10 9 10 13 0 21 27 15 45 -4 10
-14 13 -29 9 -24 -6 -43 10 -25 21 15 9 12 41 -4 54 -11 10 -16 9 -24 -5 -11
-21 -32 -10 -32 17 0 22 -17 24 -42 5 -22 -16 -23 -32 -2 -40 20 -8 8 -27 -14
-24 -9 2 -17 -3 -16 -9 1 -7 2 -20 3 -28 0 -10 12 -15 30 -15 17 0 33 -4 36
-10 3 -5 3 -10 -2 -10 -4 0 -14 -4 -22 -9 -24 -15 13 -45 45 -37 22 6 25 4 19
-13 -5 -15 1 -21 30 -31 19 -6 35 -18 35 -25 0 -12 -8 -12 -47 0 -27 8 -63 15
-80 15 -29 0 -38 7 -69 55 -20 30 -38 55 -40 55 -2 0 6 -19 17 -42 32 -67 18
-90 -81 -135 -94 -42 -101 -56 -9 -19 34 15 70 26 78 26 9 0 25 7 35 15 11 8
32 15 47 15 32 0 283 -71 319 -90 23 -12 24 -14 5 -20 -21 -8 -49 2 -60 21 -5
7 -11 6 -21 -2 -12 -10 -18 -8 -30 9 -8 12 -24 22 -36 22 -17 0 -19 -4 -14
-25 7 -29 -13 -35 -34 -10 -14 17 -46 20 -55 5 -4 -6 -1 -17 5 -25 13 -16 9
-18 -27 -15 -26 2 -28 -6 -13 -46 8 -21 14 -24 22 -16 20 20 31 14 24 -13 -6
-23 -3 -25 24 -25 23 0 33 6 40 25 11 30 34 34 25 5 -7 -22 6 -26 35 -10 11 6
17 17 14 24 -7 18 16 33 25 17 5 -7 17 -1 34 19 29 32 74 41 83 16 3 -8 12
-41 19 -73 7 -32 21 -79 31 -105 14 -34 16 -50 8 -58 -13 -13 -99 -23 -169
-19 -106 6 -232 4 -291 -4 -59 -8 -61 -8 -67 14 -4 14 0 30 8 39 18 20 19 37
3 43 -9 3 -5 10 10 23 28 23 21 58 -9 49 -14 -5 -19 -1 -19 14 0 12 4 21 9 21
17 0 22 34 6 49 -14 14 -17 14 -25 1 -11 -18 -24 -6 -25 23 0 17 -5 21 -25 19
-33 -4 -47 -19 -32 -34 20 -20 14 -31 -13 -24 -22 6 -25 3 -25 -23 0 -24 6
-31 33 -42 29 -11 30 -13 10 -16 -13 -3 -23 -8 -23 -13 0 -24 15 -40 35 -40
27 0 42 -16 23 -23 -8 -3 -1 -15 20 -32 35 -30 41 -45 17 -45 -21 0 -285 127
-285 137 0 4 -9 19 -20 33 l-21 25 7 -28 c6 -25 -20 -86 -32 -74 -3 2 -17 -8
-33 -23 -21 -21 -34 -27 -54 -23 -20 4 -27 1 -27 -10 0 -12 -8 -15 -34 -10
-22 3 -36 1 -41 -8 -5 -7 -4 -14 3 -17 7 -2 12 -11 12 -19 0 -12 -7 -14 -30
-10 -23 5 -32 2 -40 -13 -13 -25 -13 -30 4 -30 23 0 29 -19 9 -27 -29 -11 -33
-26 -13 -45 23 -22 36 -23 44 -3 8 22 26 18 26 -5 0 -23 8 -25 34 -5 14 11 17
22 13 45 -7 33 6 40 22 13 9 -17 11 -17 25 2 18 24 19 32 6 40 -17 10 -11 36
7 33 12 -2 17 6 20 32 8 73 89 108 164 70 52 -27 169 -107 186 -128 19 -23 2
-44 -84 -105 -77 -54 -166 -137 -147 -137 5 0 34 17 64 38 71 48 254 160 258
157 8 -7 -13 -33 -39 -49 -22 -13 -27 -21 -19 -26 18 -11 1 -32 -20 -25 -13 4
-22 -1 -29 -14 -15 -27 -14 -31 9 -31 30 0 24 -17 -10 -29 -23 -8 -30 -16 -30
-36 0 -20 4 -26 18 -23 21 3 25 -4 15 -27 -7 -19 -5 -22 30 -30 24 -6 27 -5
27 19 0 26 13 35 25 16 11 -17 24 -11 31 15 4 16 0 30 -10 41 -20 19 -11 37
15 29 30 -10 37 24 11 46 -26 20 -28 29 -7 29 19 0 19 9 -1 31 -11 12 -14 27
-9 48 5 25 14 32 43 40 108 28 202 25 202 -7 0 -12 3 -13 8 -5 6 9 20 6 57
-12 29 -15 65 -25 92 -25 33 0 50 -6 75 -29 l33 -29 3 -116 c3 -75 -2 -153
-13 -222 -11 -72 -14 -129 -10 -175 4 -43 3 -81 -5 -103 -10 -32 -74 -98 -134
-139 -15 -10 -45 -42 -67 -70 -52 -66 -114 -102 -209 -123 -221 -46 -303 -85
-454 -216 -5 -4 -7 -10 -4 -13 7 -7 81 22 202 77 93 43 150 60 171 51 7 -2 23
-29 35 -59 l22 -54 33 43 c33 44 55 58 117 77 20 6 54 24 76 40 92 67 181 99
277 101 46 1 61 -2 72 -17 22 -30 15 -72 -23 -140 -38 -69 -42 -107 -9 -111
13 -2 29 10 47 36 28 41 149 111 192 111 25 0 55 -19 113 -71 49 -45 117 -81
144 -77 15 2 3 16 -53 63 -40 33 -79 73 -88 88 -14 26 -14 29 4 42 10 8 44 19
75 25 31 6 64 15 73 20 31 17 70 11 142 -24 39 -19 91 -39 114 -46 48 -12 124
-76 148 -122 12 -23 59 -58 78 -58 2 0 -2 24 -10 53 -22 84 -19 116 14 128 54
21 113 5 288 -79 93 -44 180 -84 194 -88 25 -7 25 -6 6 14 -25 29 -161 98
-398 203 -109 48 -220 104 -247 124 -99 72 -189 202 -232 335 -75 231 -37 464
88 537 38 22 64 28 142 34 53 4 108 10 122 14 23 6 27 3 33 -19 6 -25 4 -32
-22 -83 -16 -30 -15 -36 3 -30 26 11 26 -12 0 -29 -17 -11 -25 -25 -25 -46 0
-28 2 -29 30 -23 35 8 41 -8 10 -27 -23 -15 -26 -46 -6 -73 14 -19 15 -19 35
-1 21 19 23 18 25 -19 1 -16 8 -20 34 -20 43 -1 61 19 38 43 -26 30 -20 45 14
37 28 -6 30 -5 30 24 0 26 -5 32 -32 39 -41 10 -51 42 -14 42 30 0 29 0 16 34
-7 20 -16 26 -41 26 -28 0 -31 2 -25 25 5 21 2 27 -19 35 -23 9 -45 44 -45 74
0 18 62 49 184 91 96 33 118 37 187 33 66 -3 81 -7 104 -28 38 -36 51 -66 59
-138 4 -34 13 -84 21 -110 23 -72 19 -113 -12 -146 -23 -25 -24 -29 -9 -38 20
-11 12 -28 -15 -28 -12 0 -23 -10 -29 -26 -13 -34 -13 -34 15 -34 14 0 25 -5
25 -10 0 -6 -11 -16 -25 -22 -18 -8 -25 -19 -25 -39 0 -32 16 -47 33 -30 19
19 29 12 22 -18 -5 -25 -3 -29 22 -34 38 -7 46 0 39 34 -5 28 7 48 19 29 11
-18 32 -11 39 12 4 17 -2 28 -21 44 -29 23 -25 45 7 37 32 -9 28 45 -5 57 -27
10 -31 20 -14 37 8 8 5 15 -10 25 -18 13 -21 28 -25 124 -6 124 1 149 33 120
15 -13 21 -31 21 -59 0 -34 2 -39 20 -34 23 6 25 -2 9 -37 -10 -20 -9 -28 6
-42 16 -17 18 -17 30 -1 19 27 28 20 21 -17 -5 -28 -3 -36 18 -50 32 -20 33
-20 39 4 6 23 27 27 27 5 0 -8 9 -15 20 -15 11 0 20 5 20 10 0 6 7 10 15 10
24 0 17 29 -10 42 -23 11 -34 28 -17 28 4 0 13 4 21 9 10 7 11 13 1 30 -9 18
-17 21 -46 15 -27 -5 -34 -3 -34 9 0 9 7 20 15 25 14 7 13 11 -5 27 -17 16
-24 17 -40 7 -28 -17 -41 -15 -38 6 2 13 -3 17 -27 15 -31 -2 -75 29 -75 53 0
16 112 71 160 79 47 8 90 -23 90 -66 0 -26 3 -29 21 -24 20 7 21 4 15 -20 -5
-19 -2 -33 11 -47 17 -19 17 -19 35 4 15 20 19 21 28 8 5 -8 7 -23 4 -34 -7
-20 10 -36 39 -36 10 0 17 8 17 20 0 23 18 27 26 5 8 -20 34 -19 50 3 18 23
17 42 0 42 -23 0 -30 20 -11 34 15 11 16 15 4 34 -15 24 -31 27 -61 11 -25
-13 -35 -5 -18 16 11 13 10 18 -6 30 -24 18 -29 18 -44 0 -16 -20 -40 -19 -40
1 0 14 -7 15 -43 10 -33 -5 -47 -3 -56 8 -24 29 -73 29 -139 2 -78 -33 -87
-33 -125 5 l-31 32 23 19 c19 15 34 17 72 13 41 -5 48 -3 43 10 -8 21 22 20
34 -1 7 -12 17 -15 36 -10 27 7 36 31 14 39 -7 2 -10 8 -6 12 4 4 21 2 38 -5
28 -12 34 -11 53 9 21 21 21 23 5 32 -22 12 -23 29 -4 29 21 0 28 15 20 45 -7
28 -34 33 -54 10 -19 -22 -30 -18 -30 11 0 20 -4 25 -16 20 -9 -3 -19 -6 -24
-6 -5 0 -10 -15 -12 -32 -3 -34 -38 -55 -38 -24 0 9 -6 16 -14 16 -23 0 -39
-28 -32 -56 6 -22 4 -25 -14 -19 -17 5 -21 1 -26 -25 -7 -34 -45 -66 -68 -57
-7 3 -16 18 -19 33 -4 25 5 39 71 107 43 43 88 85 102 92 15 8 69 15 131 16
95 3 108 1 136 -19 26 -18 32 -19 37 -7 8 23 25 18 32 -10 4 -16 13 -25 25
-25 30 0 34 4 31 28 -4 29 7 28 33 -4 16 -21 26 -24 48 -19 27 7 36 28 17 40
-20 12 -10 26 17 23 24 -3 27 0 29 30 2 37 -17 52 -41 32 -20 -17 -38 -4 -25
20 7 13 6 19 -6 24 -29 11 -44 6 -54 -19 -11 -30 -40 -33 -40 -5 0 15 -7 20
-25 20 -20 0 -27 -6 -31 -30 -7 -30 -18 -38 -29 -20 -10 16 -21 11 -33 -15
-11 -24 -15 -25 -102 -25 -59 0 -90 4 -90 11 0 6 18 34 40 61 22 28 40 54 40
59 0 5 19 17 41 27 25 11 37 22 30 26 -22 14 -11 29 17 23 21 -4 33 0 46 15
15 17 16 22 5 29 -8 5 -17 9 -21 9 -5 0 -8 5 -8 10 0 6 14 10 30 10 24 0 33 6
40 26 15 38 13 44 -15 44 -29 0 -33 14 -7 29 16 10 15 12 -8 31 -35 27 -47 25
-53 -10 -7 -34 -23 -39 -32 -10 -5 16 -9 18 -26 7 -20 -13 -26 -42 -9 -52 15
-9 12 -45 -4 -45 -8 0 -18 5 -22 12 -5 7 -11 5 -21 -7 -18 -25 -17 -31 9 -55
l23 -21 -23 -6 c-17 -4 -21 -10 -16 -22 20 -48 17 -52 -82 -153 -125 -125
-282 -243 -301 -225 -11 12 21 49 57 65 38 16 52 32 30 32 -5 0 -10 5 -10 10
0 6 15 10 33 10 34 0 57 15 57 37 0 7 -9 13 -20 13 -11 0 -20 5 -20 10 0 6 13
10 29 10 32 0 44 12 49 48 2 18 -2 22 -24 22 -26 0 -26 1 -11 18 21 23 22 42
2 42 -8 0 -15 5 -15 10 0 6 -9 10 -20 10 -15 0 -20 -7 -20 -24 0 -33 -16 -41
-31 -15 l-11 21 -21 -21 c-18 -18 -20 -24 -9 -41 23 -38 11 -65 -16 -38 -10
10 -15 10 -22 -2 -14 -22 -12 -46 6 -61 14 -12 14 -14 -2 -26 -15 -11 -16 -17
-6 -38 10 -21 9 -32 -5 -58 -9 -18 -16 -35 -15 -39 3 -13 -63 -9 -76 4 -7 7
-12 21 -12 32 0 26 40 112 80 174 l31 47 -34 -38 c-19 -20 -49 -65 -67 -98
-33 -63 -85 -129 -101 -129 -15 0 -10 15 13 40 15 16 18 25 10 28 -19 6 -14
22 11 31 13 5 23 18 24 30 1 16 -4 21 -25 21 l-27 1 27 22 c21 17 26 28 21 45
-5 19 -10 22 -30 17 -21 -5 -24 -3 -21 17 3 20 -2 23 -30 26 -33 3 -34 3 -27
-28 6 -29 5 -31 -19 -24 -23 5 -26 3 -26 -20 0 -15 8 -30 21 -36 24 -13 20
-36 -5 -32 -27 5 -16 -41 12 -53 13 -6 20 -16 17 -24 -3 -8 4 -23 15 -33 12
-11 19 -25 17 -31 -5 -16 -254 -97 -297 -97 -44 0 -60 15 -60 54 1 75 43 126
208 255 45 35 82 67 82 72 0 4 19 37 41 73 33 53 46 66 68 67 26 1 26 1 2 8
-23 6 -23 7 23 76 44 66 45 68 10 30 -20 -22 -53 -62 -74 -90 -58 -78 -115
-125 -151 -125 -24 0 -30 3 -25 16 3 9 6 17 6 19 0 2 16 12 35 21 34 16 47 34
24 34 -5 0 -7 5 -3 11 3 6 17 8 30 5 17 -5 26 -1 34 13 14 27 13 28 -12 36
-24 7 -21 9 25 19 20 5 27 12 27 31 0 18 -5 25 -20 25 -21 0 -27 15 -10 25 18
11 11 30 -16 42 -20 9 -26 9 -30 -3 -16 -52 -14 -51 -30 -29 -13 18 -15 18
-31 2 -15 -14 -15 -21 -5 -37 6 -11 12 -27 12 -35 0 -17 -16 -20 -25 -5 -10
16 -22 12 -28 -10 -3 -13 2 -28 15 -39 19 -18 19 -19 1 -29 -16 -10 -16 -14
-5 -33 11 -17 11 -27 2 -50 -7 -16 -14 -29 -17 -29 -2 0 -27 12 -56 26 l-52
26 48 -42 c62 -55 61 -74 -7 -136 -129 -118 -250 -214 -271 -214 -11 0 -12 6
-4 30 6 17 15 30 20 30 18 0 55 42 42 47 -26 9 -12 23 22 23 19 0 35 4 35 9 0
5 3 16 6 24 4 10 -2 17 -16 19 -31 5 -26 22 9 31 27 7 31 12 31 42 0 33 -2 35
-25 29 -25 -6 -35 8 -15 21 17 11 11 23 -19 38 -35 17 -41 14 -41 -25 0 -28
-24 -40 -32 -16 -7 19 -38 0 -38 -23 0 -12 7 -27 17 -34 10 -7 14 -19 10 -29
-5 -13 -11 -15 -27 -6 -17 9 -20 7 -26 -14 -7 -29 1 -46 22 -46 8 0 14 -7 14
-15 0 -8 -7 -15 -15 -15 -20 0 -19 -7 4 -36 22 -28 16 -71 -13 -88 -14 -9 -21
-6 -37 13 -16 19 -19 39 -19 120 0 54 6 117 14 142 75 243 82 264 108 290 31
30 105 59 154 59 38 0 185 50 266 91 44 22 71 29 118 29 33 0 96 7 140 16 l81
17 29 -28 c17 -17 31 -43 35 -66 6 -35 25 -56 25 -27 0 8 3 9 10 2 8 -8 7 -19
-1 -37 -10 -21 -9 -29 4 -41 20 -20 37 -20 37 -1 0 8 7 15 15 15 11 0 13 -8 8
-32 -5 -23 -2 -34 12 -45 27 -19 45 -16 45 7 0 11 7 20 15 20 8 0 15 -7 15
-15 0 -22 30 -18 51 6 21 25 17 36 -18 50 -25 9 -23 29 3 29 8 0 14 6 14 14 0
23 -25 36 -57 30 -35 -7 -50 8 -28 26 12 10 13 16 4 26 -14 17 -41 18 -56 3
-12 -12 -37 -3 -28 11 9 14 -13 22 -32 11 -22 -12 -75 17 -71 38 2 8 19 20 38
27 48 17 29 17 -55 -1 -39 -8 -105 -15 -147 -15 -67 0 -80 3 -105 24 l-28 24
30 12 c24 9 35 8 57 -4 30 -18 52 -21 43 -6 -3 6 1 10 9 10 8 0 18 -9 21 -20
4 -13 15 -20 32 -20 22 0 24 3 19 25 -8 30 4 32 29 5 21 -24 24 -24 49 -5 16
12 17 18 8 27 -19 19 -14 28 13 28 23 0 25 3 19 28 -9 36 -12 38 -34 24 -27
-17 -30 -15 -30 13 0 18 -5 25 -20 25 -13 0 -24 -10 -30 -25 -11 -29 -40 -34
-40 -6 0 32 -40 14 -47 -21 -4 -21 -9 -26 -16 -19 -17 17 -24 13 -31 -13 -3
-13 -16 -26 -28 -30 -44 -11 -50 -8 -43 24 10 44 -2 36 -15 -10 -16 -60 -52
-95 -123 -120 -70 -24 -207 -39 -207 -23 0 16 25 33 46 32 37 -4 54 1 54 16 0
19 9 19 31 -1 16 -14 20 -14 39 -1 18 12 19 16 5 27 -20 17 -9 33 15 20 28
-15 38 -12 51 11 9 18 8 24 -5 31 -22 12 -20 25 4 31 20 5 28 27 10 27 -5 0
-10 7 -10 15 0 22 -25 18 -43 -7 l-16 -23 -7 23 c-12 40 -59 21 -49 -20 8 -33
-12 -46 -30 -22 -13 18 -15 18 -30 3 -13 -13 -15 -21 -6 -37 12 -22 6 -33 -15
-25 -10 4 -14 -3 -14 -24 0 -32 -26 -63 -53 -63 -30 0 -18 40 35 117 99 143
196 203 326 203 37 0 85 -5 107 -10 22 -6 101 -15 175 -20 238 -16 315 -51
303 -141 -4 -29 -3 -40 5 -35 17 10 23 -10 7 -24 -17 -14 -20 -46 -5 -55 6 -4
17 -1 25 5 18 15 20 1 4 -34 -9 -20 -9 -28 4 -40 20 -20 27 -20 43 2 13 16 14
16 20 -5 7 -26 22 -29 49 -9 19 14 19 15 2 33 -22 25 -22 33 3 33 11 0 20 4
20 9 0 24 -14 41 -35 41 -30 0 -41 16 -20 28 25 14 7 42 -27 42 -22 0 -28 4
-26 18 2 12 -5 18 -24 20 -19 2 -29 11 -37 33 -19 54 3 75 91 85 43 5 58 3 71
-11 9 -9 17 -12 17 -6 0 13 54 15 78 2 9 -5 26 -5 37 0 11 4 17 8 13 8 -3 1
-42 8 -85 16 -43 8 -96 15 -117 15 -22 0 -36 3 -32 7 4 4 22 6 41 5 26 -2 35
1 35 13 0 17 11 20 27 4 10 -10 63 -3 63 8 0 3 -8 12 -17 19 -26 18 -8 29 23
15 23 -10 29 -9 45 8 24 25 24 27 -2 34 -23 6 -17 27 7 27 17 0 18 19 0 43
-17 22 -28 22 -44 -3 -14 -23 -37 -17 -28 7 4 10 0 14 -17 11 -17 -2 -23 -11
-25 -35 -3 -35 -25 -45 -36 -17 -11 29 -39 -4 -32 -38 5 -23 2 -28 -14 -28
-14 0 -20 -7 -20 -23 0 -13 -9 -32 -19 -41 -50 -45 -201 -49 -201 -6 0 11 13
29 29 41 17 12 43 43 59 70 28 44 34 48 89 59 32 7 97 27 144 46 47 19 92 34
98 34 7 0 10 4 7 9 -4 5 -29 0 -57 -12 -40 -17 -52 -19 -58 -8 -7 10 -9 10
-14 -1 -6 -16 -70 -38 -110 -38 -17 0 -31 8 -38 21 -15 29 -2 72 62 208 27 57
42 98 34 91 -13 -10 -15 -8 -15 13 0 14 4 27 9 29 4 2 12 13 15 26 6 17 3 22
-11 22 -15 1 -14 4 7 21 14 12 26 30 26 41 1 16 -3 18 -22 14 -29 -8 -31 5 -4
29 24 21 24 24 5 49 -12 16 -18 17 -27 8 -19 -19 -30 -14 -26 11 2 18 -2 23
-25 25 -30 4 -48 -21 -28 -41 19 -19 12 -30 -14 -23 -22 6 -25 3 -25 -19 0
-18 7 -28 25 -35 30 -12 33 -30 4 -30 -15 0 -19 -4 -15 -16 3 -9 6 -20 6 -25
0 -5 12 -9 26 -9 21 0 24 -4 19 -19 -4 -14 0 -23 15 -31 12 -6 25 -22 30 -36
8 -21 -2 -47 -67 -172 -42 -81 -78 -149 -80 -152 -10 -12 -21 27 -16 57 4 26
2 33 -11 33 -20 0 -20 9 0 31 14 16 14 20 1 39 -12 18 -16 19 -27 5 -19 -23
-30 -8 -17 24 9 24 8 32 -7 47 -17 17 -19 17 -31 1 -15 -21 -25 -22 -25 -3 0
22 -17 28 -40 14 -24 -15 -26 -31 -5 -48 21 -17 19 -30 -5 -30 -11 0 -20 -6
-20 -14 0 -20 25 -37 43 -30 22 8 33 -17 14 -31 -14 -10 -14 -15 -3 -30 9 -13
20 -16 40 -11 22 5 26 4 24 -11 -2 -12 5 -19 26 -23 16 -3 34 -13 39 -22 17
-26 -38 -106 -98 -143 -45 -28 -55 -30 -134 -29 -84 1 -216 27 -236 46 -14 13
22 33 60 33 23 0 29 4 27 18 -3 18 22 24 33 7 8 -12 25 -13 45 0 12 7 12 12 2
22 -21 21 -13 30 19 23 23 -5 34 -3 44 12 12 16 11 20 -7 34 l-21 17 21 6 c27
9 27 14 3 45 l-18 24 -19 -21 c-23 -27 -34 -28 -34 -2 0 16 -4 18 -22 11 -16
-6 -22 -16 -21 -32 3 -43 -5 -54 -25 -36 -26 24 -46 7 -39 -32 6 -27 4 -31
-11 -29 -13 2 -16 -3 -14 -22 2 -17 -6 -34 -22 -49 -26 -24 -26 -24 -47 -5
-39 35 -41 58 -9 126 17 35 30 69 30 76 0 7 33 48 74 91 41 43 81 94 89 113
18 43 59 55 107 31 27 -13 34 -13 42 -2 7 11 12 10 25 -8 8 -13 24 -23 35 -23
16 0 19 5 14 25 -7 28 5 33 24 10 14 -17 38 -19 60 -5 12 7 12 12 2 22 -19 19
-15 28 12 28 21 0 25 5 24 30 -1 22 -6 30 -19 30 -10 0 -21 -4 -24 -10 -13
-20 -27 -10 -21 15 6 22 3 25 -19 25 -18 0 -28 -7 -35 -25 -11 -30 -30 -33
-37 -6 -7 28 -43 15 -43 -16 0 -21 -4 -24 -21 -20 -15 4 -22 -1 -29 -17 -7
-20 -35 -35 -62 -36 -13 0 -9 15 24 86 17 38 30 79 29 91 -1 12 8 36 21 53 19
26 20 32 8 40 -11 7 -9 11 13 19 15 6 27 15 27 20 0 5 3 17 7 27 5 14 2 16
-20 10 -35 -8 -36 11 -1 26 19 9 24 17 20 32 -3 12 -6 24 -6 29 0 4 -11 5 -25
1 -22 -5 -25 -3 -23 17 3 21 -1 24 -27 24 -27 0 -30 -3 -27 -27 2 -24 -1 -28
-20 -25 -31 3 -37 -31 -8 -53 24 -18 20 -43 -5 -33 -11 4 -15 -2 -15 -21 0
-19 6 -27 25 -32 27 -7 33 -19 13 -28 -9 -4 -6 -10 10 -22 35 -26 27 -63 -37
-192 -45 -90 -71 -129 -111 -166 -41 -38 -54 -46 -61 -35 -7 11 -9 10 -9 -4 0
-28 -78 -155 -106 -173 -18 -12 -28 -14 -37 -5 -32 26 -62 278 -54 458 6 146
22 211 68 266 30 36 32 37 50 21 12 -11 19 -31 19 -56 0 -27 4 -38 15 -38 17
0 20 -16 5 -25 -13 -8 -13 -42 0 -50 6 -4 18 -1 26 6 20 16 28 5 15 -19 -16
-30 -14 -40 10 -53 18 -9 24 -8 32 6 9 17 11 16 29 -6 13 -16 21 -20 25 -11 2
6 11 12 19 12 22 0 17 26 -8 43 l-23 16 23 7 c12 3 22 12 22 19 0 19 -25 36
-43 29 -28 -10 -40 6 -21 27 16 18 16 21 2 35 -12 12 -20 13 -36 5 -22 -12
-33 -6 -26 14 4 9 -5 15 -27 17 -19 2 -37 12 -46 25 -14 21 -11 23 79 76 51
30 100 57 108 60 10 4 8 6 -7 6 -12 1 -74 -24 -137 -56 -64 -31 -118 -54 -121
-51 -11 11 9 40 42 62 21 15 30 27 24 31 -18 10 -1 26 21 19 13 -4 24 0 33 13
20 25 18 33 -6 33 -28 0 -19 23 12 30 17 4 25 14 27 34 3 25 1 27 -18 21 -20
-6 -21 -4 -16 23 6 25 4 30 -16 36 -35 9 -38 8 -38 -19 0 -27 -9 -32 -27 -14
-6 6 -16 8 -22 5 -14 -9 -14 -43 -1 -51 6 -3 10 -13 10 -22 0 -11 -6 -14 -25
-9 -21 5 -25 3 -25 -16 0 -12 7 -30 16 -40 16 -16 15 -18 0 -24 -16 -6 -16 -8
0 -31 13 -20 14 -30 5 -50 -23 -50 -46 -17 -86 123 -21 73 -24 80 -19 39 3
-27 8 -58 11 -69 10 -34 -30 -1 -43 36 -8 23 -16 32 -29 30 -14 -3 -16 1 -12
19 4 15 0 30 -10 42 -17 17 -18 17 -35 -5 l-18 -23 0 36 c0 29 -4 38 -22 43
-35 9 -38 8 -38 -14z m-670 -961 c0 -16 -5 -20 -27 -17 -33 4 -34 20 -1 30 13
3 24 6 26 7 1 1 2 -8 2 -20z m-150 -69 c-12 -7 -12 -12 -2 -22 6 -6 12 -22 12
-35 0 -23 0 -23 19 -4 10 10 27 24 37 30 14 9 15 14 6 17 -18 8 -4 24 20 24
11 0 27 8 35 18 12 15 13 12 7 -23 -9 -59 -39 -122 -63 -135 -19 -10 -26 -7
-51 20 -30 33 -50 84 -50 133 l0 28 22 -21 c19 -18 20 -22 8 -30z"/>
<path d="M8725 7856 c-126 -29 -252 -103 -344 -202 -162 -173 -186 -393 -62
-566 72 -100 176 -149 316 -149 134 0 246 41 373 136 166 125 240 322 183 489
-13 39 -19 75 -15 90 5 21 2 27 -18 35 -14 5 -40 29 -59 53 -44 56 -54 64
-117 94 -65 32 -171 40 -257 20z m262 -44 c23 -12 61 -45 85 -73 24 -28 53
-55 66 -60 20 -8 22 -14 17 -43 -4 -21 -1 -44 8 -62 34 -68 23 -174 -26 -253
-121 -197 -422 -321 -610 -251 -137 52 -236 208 -224 356 12 159 160 316 362
387 71 25 91 27 180 24 79 -2 109 -8 142 -25z"/>
<path d="M8780 7810 c-30 -4 -75 -13 -100 -21 l-45 -13 75 -8 c41 -4 86 -10
99 -13 24 -6 23 -7 -19 -50 -24 -24 -48 -41 -53 -38 -6 3 -7 1 -3 -6 4 -6 2
-18 -4 -26 -17 -21 -7 -19 52 11 66 34 153 43 195 20 17 -8 40 -30 51 -48 61
-99 25 -184 -108 -257 -52 -29 -54 -31 -24 -31 17 0 55 5 84 10 29 6 55 8 58
6 2 -3 -14 -40 -37 -82 -22 -43 -38 -80 -36 -82 2 -3 33 24 68 59 107 107 146
215 113 308 -9 24 -16 58 -16 77 0 24 -5 34 -20 39 -11 3 -33 26 -50 50 -52
75 -158 112 -280 95z"/>
<path d="M8725 7720 c9 -16 18 -30 21 -30 2 0 -2 14 -11 30 -9 17 -18 30 -21
30 -2 0 2 -13 11 -30z"/>
<path d="M8705 7710 c9 -16 18 -30 21 -30 2 0 -2 14 -11 30 -9 17 -18 30 -21
30 -2 0 2 -13 11 -30z"/>
<path d="M8542 7684 c-27 -18 -29 -55 -4 -77 24 -22 55 -21 75 1 22 25 21 48
-3 72 -24 24 -38 25 -68 4z"/>
<path d="M8701 7670 c14 -31 19 -36 19 -24 0 6 -7 19 -16 30 -14 18 -14 18 -3
-6z"/>
<path d="M8863 7648 c-53 -11 -235 -104 -314 -160 -92 -64 -120 -129 -85 -196
39 -76 134 -71 309 18 67 34 144 77 170 96 84 61 107 126 67 191 -30 50 -77
67 -147 51z m82 -113 c56 -55 13 -106 -168 -195 -145 -71 -204 -89 -241 -72
-42 19 -33 50 32 112 76 72 273 176 340 179 7 1 24 -10 37 -24z"/>
<path d="M8426 7574 c-31 -30 -8 -69 36 -62 26 3 37 41 18 64 -16 18 -35 18
-54 -2z"/>
<path d="M8354 7439 c-3 -6 1 -18 10 -27 15 -15 17 -15 32 0 19 19 11 38 -16
38 -10 0 -22 -5 -26 -11z"/>
<path d="M8970 7314 c0 -6 7 -19 16 -30 14 -18 14 -18 3 6 -14 31 -19 36 -19
24z"/>
<path d="M8945 7260 c9 -16 18 -30 21 -30 2 0 -2 14 -11 30 -9 17 -18 30 -21
30 -2 0 2 -13 11 -30z"/>
<path d="M8966 7267 c3 -10 9 -15 12 -12 3 3 0 11 -7 18 -10 9 -11 8 -5 -6z"/>
<path d="M8772 7238 c-7 -7 -12 -24 -12 -38 0 -14 5 -31 12 -38 7 -7 24 -12
38 -12 14 0 31 5 38 12 7 7 12 24 12 38 0 14 -5 31 -12 38 -7 7 -24 12 -38 12
-14 0 -31 -5 -38 -12z"/>
<path d="M8636 7174 c-19 -18 -19 -20 -6 -45 22 -39 87 -12 72 31 -11 32 -42
39 -66 14z"/>
<path d="M8510 7165 c-25 -30 10 -61 38 -33 17 17 15 26 -7 37 -14 8 -22 7
-31 -4z"/>
<path d="M5402 7722 c3 -19 -6 -24 -30 -14 -14 5 -43 -27 -38 -43 1 -5 15 -11
29 -13 29 -4 33 -12 16 -29 -6 -6 -8 -16 -5 -22 9 -14 43 -14 51 -1 12 19 38
11 32 -10 -8 -31 32 -38 53 -10 16 21 18 22 27 5 9 -16 12 -16 35 -1 14 9 32
14 41 10 9 -3 2 10 -17 30 -24 27 -38 35 -51 30 -15 -6 -17 -4 -12 14 3 13 -1
28 -10 37 -20 21 -33 19 -33 -6 0 -28 -23 -19 -30 12 -8 31 -64 42 -58 11z"/>
<path d="M4996 7586 c7 -27 -4 -34 -24 -14 -8 8 -14 5 -22 -16 -15 -40 -13
-48 13 -46 36 3 40 1 27 -16 -11 -12 -10 -18 3 -31 15 -16 18 -15 41 6 27 26
47 21 39 -9 -8 -29 43 -28 52 1 6 19 9 20 23 6 14 -15 17 -14 38 6 21 21 22
23 6 49 -17 29 -32 37 -32 17 0 -21 -25 -2 -26 20 -2 26 -3 28 -29 33 -13 2
-20 -3 -20 -14 0 -26 -19 -23 -25 4 -4 17 -14 24 -38 26 -31 3 -32 2 -26 -22z"/>
<path d="M6790 7291 c0 -11 5 -23 10 -26 18 -11 10 -26 -12 -23 -34 5 -32 -44
1 -52 32 -7 38 -26 12 -35 -30 -9 -9 -45 25 -45 21 0 24 -4 19 -20 -5 -15 0
-22 18 -29 14 -5 27 -15 29 -22 2 -6 10 7 17 31 10 35 10 44 -1 51 -10 7 -8
13 10 27 28 22 21 56 -9 47 -23 -8 -26 17 -4 35 18 15 18 20 0 44 -12 16 -18
17 -27 8 -18 -18 -28 -15 -28 8 0 16 -7 20 -30 20 -23 0 -30 -5 -30 -19z"/>
<path d="M7690 7140 c0 -16 -4 -30 -10 -30 -5 0 -10 5 -10 10 0 19 -29 10 -36
-12 -4 -14 -1 -25 10 -33 24 -18 19 -35 -9 -35 -32 0 -34 -32 -4 -53 20 -14
20 -16 3 -25 -18 -10 -18 -11 -1 -29 9 -11 17 -27 17 -36 0 -15 2 -15 19 2 10
10 27 24 37 30 13 9 15 14 7 17 -22 9 -14 24 12 24 14 0 29 8 35 19 14 27 13
31 -10 31 -29 0 -24 17 8 28 22 7 28 16 27 33 -2 18 -8 23 -23 22 -19 -2 -21
1 -16 26 5 23 2 29 -18 34 -36 10 -38 9 -38 -23z"/>
<path d="M4334 7025 c7 -26 -2 -33 -20 -15 -14 14 -31 -1 -35 -30 -3 -21 0
-25 21 -27 14 0 29 -1 34 -2 5 -1 3 -8 -4 -16 -6 -8 -9 -19 -5 -25 9 -15 41
-12 55 5 18 22 43 19 35 -4 -4 -12 0 -21 11 -25 19 -7 44 10 44 30 0 8 5 14
10 14 6 0 10 -4 10 -10 0 -16 27 -12 34 5 3 8 12 15 21 15 11 0 8 8 -12 30
-20 23 -29 27 -39 19 -14 -11 -16 -9 -30 39 -6 21 -44 14 -44 -8 0 -28 -17
-25 -24 5 -5 20 -13 25 -37 25 -28 0 -31 -2 -25 -25z"/>
<path d="M3395 6797 c-44 -21 -83 -64 -96 -107 -9 -30 -8 -43 5 -69 21 -41 71
-71 116 -71 81 1 177 76 187 147 4 34 1 45 -25 74 -27 30 -35 33 -93 36 -40 2
-75 -2 -94 -10z m66 -70 c43 -33 49 -84 15 -124 -52 -60 -156 -22 -156 57 0
52 29 80 83 80 23 0 49 -6 58 -13z"/>
<path d="M8625 6678 c-77 -42 -124 -140 -104 -213 12 -43 43 -65 91 -65 99 0
188 87 188 186 0 28 -8 44 -34 70 -28 28 -41 34 -77 34 -24 0 -53 -6 -64 -12z
m127 -38 c25 -26 29 -36 24 -63 -9 -44 -36 -67 -83 -74 -85 -11 -133 88 -69
143 40 35 89 32 128 -6z"/>
<path d="M7751 6539 c-2 -22 -25 -69 -33 -69 -5 0 -8 -4 -8 -10 0 -5 7 -10 16
-10 14 0 14 -3 4 -15 -7 -8 -19 -15 -26 -15 -8 0 -14 -10 -14 -25 0 -18 5 -25
20 -25 26 0 25 -8 -1 -29 -30 -24 -18 -65 17 -57 20 5 23 3 21 -16 -2 -19 3
-23 28 -23 28 0 30 2 27 33 -2 29 0 33 17 27 32 -10 37 26 7 48 -31 23 -33 37
-5 37 30 0 22 44 -9 48 -18 3 -21 8 -16 24 4 14 0 24 -14 34 -12 8 -23 24 -25
37 -2 12 -5 15 -6 6z"/>
<path d="M3340 6319 c-44 -18 -92 -61 -106 -95 -24 -56 -18 -92 20 -130 29
-29 41 -34 83 -34 131 0 238 159 160 238 -20 19 -38 26 -79 29 -29 1 -64 -2
-78 -8z m39 -84 c33 -16 41 -33 41 -80 0 -24 -7 -39 -26 -54 -80 -63 -195 27
-138 107 28 41 77 52 123 27z"/>
<path d="M4407 6283 c-14 -4 -17 -11 -12 -30 5 -21 3 -24 -17 -21 -20 3 -23
-2 -26 -30 -3 -33 -3 -34 28 -27 29 6 31 5 24 -19 -5 -23 -3 -26 18 -26 13 0
29 9 36 20 7 11 17 20 22 20 6 0 10 -9 10 -20 0 -30 38 -26 50 5 10 27 26 33
32 13 3 -8 14 -2 30 17 l26 30 -32 21 c-24 17 -32 19 -34 8 -5 -22 -21 -16
-28 11 -3 14 -10 25 -14 25 -5 0 -15 3 -24 6 -12 5 -16 -1 -16 -22 l-1 -29
-22 28 c-13 15 -25 26 -27 26 -3 -1 -13 -3 -23 -6z"/>
<path d="M8675 6173 c-44 -23 -74 -53 -96 -95 -63 -124 41 -210 175 -144 112
55 141 183 54 236 -39 24 -92 25 -133 3z m137 -30 c9 -10 20 -32 24 -50 5 -27
1 -37 -24 -63 -71 -71 -192 0 -150 88 25 52 108 66 150 25z"/>
<path d="M7126 6085 c-8 -30 -36 -34 -36 -5 0 23 -4 24 -31 10 -10 -6 -19 -20
-19 -31 0 -15 -5 -19 -19 -14 -13 4 -23 -2 -35 -21 -10 -14 -16 -27 -14 -28
62 -41 68 -42 68 -18 1 13 5 11 23 -10 30 -37 62 -38 53 -3 -8 30 1 32 29 5
13 -12 28 -17 43 -13 23 6 30 27 12 38 -17 10 -2 24 20 18 17 -4 20 0 20 25 0
34 -16 50 -33 33 -21 -21 -38 -13 -31 14 5 22 3 25 -19 25 -18 0 -27 -7 -31
-25z"/>
<path d="M2927 5909 c-197 -20 -361 -39 -363 -42 -6 -6 13 -177 20 -184 2 -2
61 2 131 9 69 8 128 12 129 8 2 -3 9 -58 16 -122 12 -112 13 -118 34 -113 11
2 47 7 80 10 l58 7 -6 56 c-3 32 -8 85 -12 119 -6 60 -6 62 17 67 58 12 119
13 119 2 0 -21 21 -231 25 -252 4 -19 8 -20 82 -11 43 5 79 9 79 10 2 2 -45
449 -48 462 -2 7 -126 -2 -361 -26z"/>
<path d="M4871 5931 c-8 -5 -11 -16 -6 -30 6 -19 3 -20 -24 -15 -29 6 -31 5
-31 -26 0 -30 2 -32 26 -26 24 6 26 5 20 -17 -4 -18 -1 -27 10 -31 28 -11 41
-6 52 20 14 28 33 24 25 -5 -8 -29 37 -23 48 6 9 25 25 30 31 11 3 -8 15 -3
33 14 25 24 27 28 12 42 -8 9 -18 21 -21 28 -5 10 -7 10 -12 1 -9 -20 -24 -15
-34 12 -12 31 -50 35 -50 6 0 -31 -18 -34 -36 -6 -18 27 -22 29 -43 16z"/>
<path d="M9128 5872 l-356 -66 -12 -113 c-7 -63 -10 -116 -7 -119 5 -6 685
-304 691 -304 5 0 28 191 24 194 -2 2 -33 13 -70 25 -37 13 -70 26 -72 30 -3
4 0 51 6 104 l12 97 30 4 c17 3 52 8 78 11 54 7 53 4 66 128 8 74 7 77 -12 76
-12 -1 -181 -31 -378 -67z m57 -234 c-4 -35 -8 -64 -9 -65 -1 -1 -61 19 -134
44 -73 25 -130 48 -127 52 7 6 178 28 238 30 l39 1 -7 -62z"/>
<path d="M4515 5710 c8 -24 2 -25 -30 -4 -24 16 -25 15 -35 -11 -14 -38 -13
-45 10 -45 24 0 26 -15 3 -24 -14 -6 -14 -9 5 -26 25 -24 36 -25 52 -5 19 22
31 18 24 -9 -8 -34 22 -43 53 -15 20 20 23 21 23 5 0 -15 5 -17 28 -10 15 4
37 7 48 7 21 -1 21 0 3 18 -11 11 -19 26 -19 35 0 11 -6 14 -21 9 -19 -6 -21
-4 -16 16 7 25 -8 49 -29 49 -8 0 -14 -7 -14 -15 0 -28 -30 -16 -36 15 -5 24
-12 30 -31 30 -20 0 -23 -4 -18 -20z"/>
<path d="M7105 5460 c-4 -11 -22 -27 -41 -35 -30 -12 -34 -18 -29 -36 6 -19 4
-21 -18 -15 -17 4 -31 1 -41 -10 -22 -22 -20 -44 4 -44 11 0 20 -4 20 -10 0
-5 -10 -10 -22 -10 -32 0 -44 -10 -52 -42 -6 -25 -4 -28 19 -28 29 0 30 -3 13
-30 -11 -16 -9 -22 7 -35 28 -21 49 -14 53 18 4 29 19 36 28 12 4 -8 12 -15
20 -15 19 0 29 47 14 65 -17 21 -5 51 15 35 8 -6 19 -9 25 -5 16 10 12 53 -7
64 -17 10 -17 12 0 25 15 12 17 18 7 36 -6 12 -8 34 -5 51 7 33 0 40 -10 9z"/>
<path d="M4789 5433 c-1 -5 -1 -16 0 -25 2 -19 -24 -25 -34 -8 -8 12 -25 13
-45 0 -12 -7 -12 -12 -2 -22 19 -19 14 -28 -14 -28 -22 0 -25 -3 -20 -22 3
-13 6 -27 6 -31 0 -5 14 -6 31 -2 28 6 30 5 24 -14 -5 -18 -2 -21 24 -21 25 0
30 5 36 30 7 34 25 41 25 10 0 -11 3 -20 8 -20 15 1 43 29 41 42 -4 32 0 41
16 28 12 -10 17 -7 27 15 6 14 23 33 37 41 25 14 25 15 2 8 -13 -3 -34 0 -48
7 -20 11 -26 11 -34 -1 -8 -13 -11 -12 -23 3 -13 17 -55 24 -57 10z"/>
<path d="M5355 5320 c-4 -11 -11 -20 -16 -20 -5 0 -9 -7 -9 -15 0 -8 5 -15 10
-15 18 0 11 -18 -10 -25 -13 -4 -20 -15 -20 -31 0 -19 5 -24 25 -24 30 0 31
-7 5 -35 -17 -19 -18 -24 -6 -40 12 -16 16 -17 30 -6 17 14 19 10 16 -27 -1
-19 3 -22 29 -20 30 2 49 22 31 33 -21 13 -9 27 16 21 24 -6 25 -5 22 26 -2
25 -8 34 -25 36 -13 2 -23 10 -23 18 0 11 6 13 22 9 17 -6 20 -4 15 10 -4 9
-7 21 -7 26 0 5 -10 9 -23 9 -30 0 -40 10 -27 25 7 8 1 20 -20 38 -28 25 -29
25 -35 7z"/>
<path d="M8679 5234 c-40 -94 -51 -123 -47 -133 3 -9 281 -214 396 -291 56
-38 64 -49 30 -44 -13 2 -132 22 -265 44 -133 22 -248 40 -256 40 -13 0 -95
-176 -86 -184 5 -4 707 -77 735 -76 17 0 29 18 63 101 23 56 41 105 39 110 -2
4 -115 99 -253 210 -137 111 -269 218 -292 237 l-43 34 -21 -48z"/>
<path d="M2980 5127 c-168 -11 -306 -21 -308 -23 -2 -1 11 -43 30 -94 l33 -91
35 5 c19 3 56 8 81 12 l45 6 36 -97 36 -96 -64 -42 c-35 -23 -64 -46 -64 -51
0 -9 60 -176 66 -184 2 -4 564 426 593 453 12 11 8 30 -25 119 l-39 106 -75
-2 c-41 0 -212 -10 -380 -21z m350 -132 c0 -5 -205 -144 -224 -151 -8 -3 -20
15 -35 52 -12 31 -19 59 -17 61 2 3 60 13 128 23 149 21 148 21 148 15z"/>
<path d="M3415 4358 c-143 -116 -271 -219 -284 -229 l-24 -19 42 -54 c68 -88
59 -88 168 0 53 44 137 117 187 164 l90 85 -66 -95 c-99 -144 -180 -288 -173
-308 3 -9 16 -29 30 -44 l24 -28 143 50 c79 26 176 62 217 79 41 17 77 31 80
31 3 0 -37 -28 -89 -61 -99 -64 -310 -227 -310 -240 0 -13 102 -130 110 -127
12 5 549 439 556 450 6 9 -102 147 -121 155 -12 4 -286 -89 -369 -126 -27 -12
-51 -20 -52 -18 -2 2 13 27 32 56 19 29 73 114 119 190 l83 138 -55 69 c-30
38 -60 74 -66 81 -9 9 -72 -37 -272 -199z"/>
<path d="M8271 4426 l-51 -75 32 -24 c18 -14 152 -109 297 -211 211 -149 267
-184 276 -174 7 7 33 42 58 78 l45 65 -293 208 c-162 114 -298 207 -303 207
-5 0 -33 -33 -61 -74z"/>
<path d="M7856 3963 c-47 -41 -86 -77 -86 -78 0 -7 312 -681 318 -687 4 -3 39
22 77 58 l70 63 -37 70 -37 70 77 70 76 69 62 -44 c34 -24 65 -44 69 -44 12 0
146 123 143 131 -2 7 -561 352 -629 390 -13 6 -36 -9 -103 -68z m242 -212 l92
-65 -48 -43 c-26 -23 -49 -42 -52 -42 -4 -1 -127 215 -139 243 -5 11 19 -4
147 -93z"/>
<path d="M4174 3603 c-98 -136 -195 -270 -215 -298 l-37 -50 78 -57 78 -57
208 287 c114 158 211 292 216 298 5 7 -5 20 -29 37 -21 14 -56 39 -79 56 l-41
31 -179 -247z"/>
<path d="M7364 3596 c-29 -7 -118 -45 -198 -84 l-145 -71 155 -318 c85 -175
160 -322 165 -328 6 -6 40 6 94 33 l85 42 -50 100 c-27 55 -50 102 -50 105 0
2 24 17 53 31 125 63 187 146 187 251 -1 92 -56 189 -130 228 -39 20 -110 25
-166 11z m81 -180 c35 -35 43 -91 18 -124 -19 -26 -88 -72 -108 -72 -6 0 -30
38 -53 85 l-42 86 42 18 c89 38 110 39 143 7z"/>
<path d="M4741 3558 c-5 -13 -70 -164 -144 -335 -75 -172 -132 -315 -128 -317
4 -3 100 -45 214 -95 183 -79 208 -88 216 -73 5 10 20 43 34 74 l25 56 -81 36
c-45 19 -103 44 -128 55 l-47 21 110 252 c60 139 112 258 114 263 3 8 -83 51
-167 83 -5 2 -13 -7 -18 -20z"/>
<path d="M5426 3319 c-3 -8 -33 -160 -66 -339 -34 -179 -64 -334 -66 -346 -5
-18 3 -22 88 -37 51 -9 94 -14 96 -12 2 2 33 156 68 342 35 186 66 346 68 355
3 13 -7 19 -43 27 -102 21 -141 24 -145 10z"/>
<path d="M6139 3273 l-106 -4 -92 -355 c-51 -196 -95 -362 -98 -370 -4 -11 13
-14 95 -14 l99 0 13 75 c7 42 16 77 19 79 3 2 51 6 106 7 l99 4 21 -75 20 -74
100 3 c55 1 101 4 102 4 6 7 -253 727 -261 725 -6 -1 -59 -4 -117 -5z m56
-293 c26 -94 31 -126 22 -132 -19 -12 -117 -10 -117 3 0 16 41 241 47 259 7
19 5 22 48 -130z"/>
</g>
</svg>
